<svg width="359" height="359" viewBox="0 0 359 359" fill="none" xmlns="http://www.w3.org/2000/svg">
<path fill-rule="evenodd" clip-rule="evenodd" d="M169.041 52.4535C135.408 57.1966 106.211 79.5051 93.1739 110.42C82.1899 136.466 83.1704 164.327 95.9862 190.367C103.801 206.246 115.46 218.925 130.402 227.796C137.013 231.719 148.437 237.063 151.35 237.592C152.437 237.79 154.343 233.171 161.043 214.103L169.384 190.367L180.081 190.139L190.778 189.912L194.422 199.961C196.427 205.488 200.208 216.028 202.826 223.383C205.443 230.738 208.043 236.932 208.604 237.148C210.054 237.704 222.755 232.297 229.26 228.353C237.292 223.483 242.488 219.281 249.314 212.138C273.39 186.937 281.273 151.129 270.232 117.113C258.277 80.2761 222.68 53.5543 183.604 52.0819C178.427 51.8863 171.874 52.0532 169.041 52.4535ZM177.303 69.3445C177.955 75.659 179.352 76.8794 187.368 78.1399L193.835 79.1564L187.823 79.7318C184.516 80.0477 181.125 80.6739 180.287 81.1224C178.599 82.026 177.067 86.6005 177.061 90.7649C177.057 92.3609 176.719 93.2654 176.237 92.9674C175.787 92.6892 175.416 91.4704 175.414 90.2591C175.407 86.5506 173.793 81.981 172.187 81.1224C171.349 80.6739 167.958 80.042 164.652 79.7187C159.86 79.2497 159.138 79.0173 161.095 78.5745C162.446 78.2692 164.914 77.9753 166.582 77.9221C173.034 77.7159 175.402 74.7677 175.414 66.9324C175.421 62.2892 176.75 63.9867 177.303 69.3445ZM203.656 67.1853C203.26 67.8262 202.79 67.8737 202.244 67.3277C201.794 66.8776 201.693 66.0771 202.019 65.5483C202.416 64.9075 202.886 64.86 203.432 65.4059C203.882 65.8561 203.983 66.6566 203.656 67.1853ZM144.083 76.773C142.914 77.9426 142.671 77.9336 141.41 76.6731C140.108 75.3709 140.115 75.222 141.51 74.2005C142.755 73.2904 143.189 73.3067 144.182 74.3004C145.219 75.3366 145.206 75.65 144.083 76.773ZM213.887 77.0071C213.887 77.4572 213.519 77.8256 213.069 77.8256C212.619 77.8256 212.25 77.4572 212.25 77.0071C212.25 76.5569 212.619 76.1886 213.069 76.1886C213.519 76.1886 213.887 76.5569 213.887 77.0071ZM206.521 83.9642C206.521 84.6394 206.175 85.1919 205.751 85.1919C204.719 85.1919 203.98 83.9134 204.634 83.2594C205.555 82.3378 206.521 82.6988 206.521 83.9642ZM128.496 93.9897C129.266 94.5528 130.839 95.0505 131.991 95.0955C133.56 95.1577 133.274 95.368 130.846 95.9369C127.262 96.7766 126.376 97.704 126.252 100.743C126.174 102.668 126.126 102.644 125.438 100.335C124.563 97.3995 122.659 95.855 119.81 95.7691C118.131 95.7192 118.359 95.5121 120.965 94.7272C123.622 93.9259 124.359 93.24 125.014 90.9589L125.813 88.1695L126.455 90.5677C126.808 91.8862 127.726 93.4266 128.496 93.9897ZM228.211 90.1028C228.489 90.5529 228.336 90.9212 227.871 90.9212C226.165 90.9212 224.389 95.8657 224.934 99.0938C226.241 106.824 236.863 122.756 242.035 124.74C242.817 125.04 243.227 125.657 242.947 126.11C242.667 126.564 243.123 126.934 243.959 126.934C244.796 126.934 245.875 127.329 246.357 127.811C247.939 129.392 254.468 129.136 256.366 127.419C258.061 125.884 258.085 125.887 258.085 127.566C258.085 128.504 257.072 130.07 255.835 131.047C247.177 137.877 226.306 119.938 221.618 101.637C220.128 95.8231 220.612 92.2816 223.138 90.5128C225.155 89.1001 227.475 88.9127 228.211 90.1028ZM239.17 91.1259C244.544 93.7483 254.007 103.437 256.828 109.203C258.108 111.82 259.327 115.738 259.536 117.911C259.878 121.476 259.706 121.996 257.76 123.272C255.866 124.512 255.152 124.558 251.893 123.645C242.1 120.904 229.467 104.767 229.447 94.9727C229.434 88.8914 232.284 87.7644 239.17 91.1259ZM155.775 92.6065C155.775 93.0305 155.407 93.3767 154.957 93.3767C154.507 93.3767 154.138 92.8021 154.138 92.1007C154.138 91.3992 154.507 91.0522 154.957 91.3305C155.407 91.6088 155.775 92.1825 155.775 92.6065ZM233.531 96.2741C233.531 99.2206 236.473 104.62 238.415 105.236C240.448 105.881 245.35 111.774 246.981 115.532C248.087 118.081 248.202 118.151 248.228 116.294C248.271 113.313 245.505 109.059 240.654 104.64C238.312 102.507 236.804 100.757 237.303 100.752C240.408 100.721 250.69 113.425 250.712 117.317C250.716 118.105 251.117 118.75 251.602 118.75C252.774 118.75 251.813 114.367 249.744 110.282C247.727 106.296 242.007 100.547 237.912 98.3866C236.178 97.4715 235.331 96.7071 236.031 96.6866C237.97 96.6318 244.259 100.908 247.236 104.305C249.995 107.455 252.603 112.074 254.443 117.068L255.515 119.977L255.564 117.522C255.591 116.171 254.723 113.153 253.634 110.814C248.765 100.355 233.531 89.3367 233.531 96.2741ZM193.022 105.291C196.157 106.26 196.189 106.305 193.835 106.399C190.485 106.533 189.621 107.229 188.664 110.566C187.971 112.986 187.83 113.112 187.757 111.383C187.631 108.385 186.606 107.205 183.505 106.486L180.739 105.845L183.428 105.232C186.289 104.58 187.657 102.856 187.759 99.7739C187.803 98.4349 188.105 98.8179 188.788 101.08C189.607 103.794 190.252 104.436 193.022 105.291ZM217.161 100.354C217.161 103.469 220.049 111.056 223.333 116.569L226.258 121.478L223.96 123.456L221.663 125.432L224.407 123.612C226.554 122.188 227.296 122.023 227.81 122.855C228.256 123.577 227.504 124.567 225.475 125.931C221.692 128.473 221.697 128.468 222.323 129.094C222.611 129.382 224.163 128.613 225.773 127.385C227.54 126.037 229.228 125.356 230.034 125.665C231.078 126.065 230.67 126.64 228.152 128.318C224.041 131.057 224.167 130.938 224.763 131.535C225.043 131.815 226.923 131.077 228.941 129.894C233.662 127.128 234.599 128.465 230.05 131.476C225.702 134.353 227.328 135.136 231.795 132.318C233.619 131.165 235.303 130.584 235.569 131.014C235.833 131.44 234.75 132.631 233.163 133.659C230.45 135.416 229.465 136.756 230.886 136.756C231.231 136.756 232.895 135.817 234.584 134.671C236.271 133.523 238.056 132.834 238.547 133.138C239.087 133.472 238.417 134.342 236.862 135.326C233.28 137.594 234.404 138.187 238.125 135.992C240.256 134.734 241.322 134.482 241.73 135.142C242.048 135.656 242.543 136.046 242.831 136.007C245.08 135.707 244.958 136.218 242.358 137.984C238.753 140.434 235.207 140.569 230.511 138.437C220.33 133.815 209.795 117.546 209.795 106.445C209.795 103.829 210.294 102.906 212.846 100.803C216.549 97.7506 217.161 97.6868 217.161 100.354ZM166.416 101.152C166.416 101.827 166.047 102.38 165.597 102.38C165.147 102.38 164.779 101.827 164.779 101.152C164.779 100.477 165.147 99.9245 165.597 99.9245C166.047 99.9245 166.416 100.477 166.416 101.152ZM151.108 108.397C154.715 109.903 158.79 114.746 159.89 118.831C162.521 128.606 155.344 137.957 145.209 137.957C139.782 137.957 136.27 136.185 132.535 131.565C130.255 128.743 129.993 127.853 129.993 122.911C129.993 118.312 130.354 116.857 132.177 114.102C136.06 108.235 144.577 105.668 151.108 108.397ZM206.865 114.022C207.169 115.923 208.569 119.819 209.976 122.677L212.534 127.874L210.142 129.928L207.749 131.98L210.33 130.276C213.364 128.273 213.887 128.187 213.887 129.69C213.887 130.306 212.381 131.807 210.538 133.025C208.697 134.244 207.4 135.452 207.657 135.709C207.914 135.967 209.598 135.203 211.398 134.011C213.198 132.82 215.047 131.845 215.507 131.845C217.245 131.845 216.228 133.341 213.069 135.431C211.268 136.623 209.795 137.974 209.795 138.433C209.795 139.352 212.041 138.349 215.672 135.807C216.975 134.894 218.067 134.597 218.362 135.075C218.635 135.517 217.372 136.818 215.555 137.965C213.738 139.112 212.25 140.414 212.25 140.859C212.25 142.125 213.269 141.829 216.519 139.621C218.175 138.495 219.918 137.575 220.392 137.575C222.062 137.575 221.201 138.824 218.18 140.782C214.428 143.215 216.067 144.114 219.916 141.735C224.028 139.194 225.345 139.737 222.072 142.625L219.208 145.152L222.619 143.297C224.699 142.165 226.605 141.661 227.502 142.005C228.718 142.472 228.317 142.995 225.184 145.033C221.692 147.305 221.138 147.428 218.102 146.611C209.1 144.187 199.337 131.601 197.868 120.526L197.345 116.579L201.319 113.596C203.505 111.956 205.523 110.603 205.802 110.589C206.082 110.576 206.56 112.121 206.865 114.022ZM112.849 115.547C113.692 116.912 111.796 118.477 110.666 117.348C109.722 116.403 110.313 114.657 111.577 114.657C111.974 114.657 112.546 115.057 112.849 115.547ZM174.156 117.056C174.762 118.036 173.222 119.006 172.132 118.332C171.216 117.767 171.818 116.294 172.963 116.294C173.36 116.294 173.897 116.637 174.156 117.056ZM195.062 126.597C195.062 127.258 196.144 129.944 197.468 132.565L199.873 137.33L197.673 139.113L195.472 140.897L197.764 139.523C199.304 138.601 200.328 138.421 200.882 138.974C201.435 139.528 200.373 140.654 197.65 142.4L193.595 145.003L190.44 143.387C183.343 139.752 175.557 140.518 169.836 145.415C168.037 146.954 166.39 148.215 166.177 148.215C165.963 148.215 165.59 147.457 165.347 146.53C164.998 145.192 165.866 144.167 169.549 141.561C172.102 139.754 178.567 135.18 183.915 131.395C193.281 124.766 195.062 123.999 195.062 126.597ZM132.02 127.716C133.101 129.737 135.614 130.845 140.477 131.448L143.907 131.873L139.963 130.744C137.794 130.122 134.908 128.793 133.55 127.789C131.086 125.967 131.083 125.967 132.02 127.716ZM101.568 127.907C101.062 129.424 99.3002 129.675 99.3002 128.23C99.3002 127.518 99.8838 126.934 100.596 126.934C101.309 126.934 101.747 127.371 101.568 127.907ZM134.541 132.311C136.746 134.968 140.343 136.126 145.278 135.769C147.914 135.578 150.467 135.025 150.952 134.541C151.582 133.91 150.334 133.779 146.58 134.081C142.366 134.419 140.548 134.158 137.403 132.767C134.409 131.443 133.732 131.335 134.541 132.311ZM107.938 137.646C108.781 139.011 106.885 140.576 105.756 139.446C104.811 138.502 105.402 136.756 106.667 136.756C107.063 136.756 107.636 137.156 107.938 137.646ZM203.588 141.557C204.084 142.359 195.911 147.7 195.23 147.018C194.709 146.498 194.53 146.665 199.073 143.42C203.112 140.536 202.989 140.587 203.588 141.557ZM120.687 151.955C121.421 152.685 123.999 153.552 126.416 153.884C131.024 154.516 131.03 154.512 123.445 156.116C120.232 156.796 120.148 156.906 118.865 162.082L117.56 167.355L116.992 163.073C116.284 157.741 114.318 155.586 110.145 155.569C108.457 155.562 106.523 155.199 105.848 154.763C104.93 154.169 105.363 153.966 107.568 153.956C112.862 153.934 115.541 152.491 116.465 149.164C116.923 147.517 117.341 145.248 117.394 144.122C117.448 142.963 117.894 143.931 118.422 146.353C118.934 148.705 119.954 151.227 120.687 151.955ZM257.676 144.941C257.28 145.582 256.809 145.629 256.263 145.083C255.813 144.633 255.713 143.833 256.039 143.304C256.435 142.663 256.906 142.616 257.452 143.162C257.902 143.612 258.003 144.412 257.676 144.941ZM205.273 144.974C204.422 146.352 198.294 149.974 197.348 149.659C196.871 149.5 198.279 148.194 200.477 146.755C204.577 144.074 206.202 143.471 205.273 144.974ZM186.29 146.886C187.739 147.506 190.005 149.163 191.327 150.569C193.28 152.644 193.792 154.007 194.06 157.831C194.334 161.75 194.067 163.018 192.468 165.403C190.364 168.541 184.47 171.951 181.148 171.951C177.411 171.951 171.891 168.534 169.911 164.994C163.843 154.147 174.842 141.988 186.29 146.886ZM204.199 149.934C201.347 151.761 198.829 153.073 198.606 152.85C198.014 152.257 206.683 146.575 208.147 146.595C208.828 146.605 207.051 148.107 204.199 149.934ZM162.33 150.875C162.872 152.338 163.383 156.344 163.466 159.778L163.617 166.021L160.104 168.243C158.172 169.466 156.788 170.784 157.028 171.173C157.269 171.563 159.177 170.796 161.268 169.47C165.141 167.014 167.655 166.931 164.004 169.38C160.098 172.001 158.784 173.327 159.598 173.83C160.046 174.107 161.781 173.404 163.453 172.268C165.124 171.132 166.933 170.35 167.471 170.529C168.01 170.709 167.077 171.747 165.397 172.836C161.099 175.622 161.56 176.646 165.956 174.07C170.842 171.207 171.494 172.781 166.728 175.937C163.223 178.258 162.787 178.357 160.733 177.295C153.75 173.684 145.39 158 149.432 156.092C149.995 155.826 152.665 153.97 155.366 151.967C158.067 149.964 160.517 148.3 160.811 148.27C161.104 148.239 161.788 149.412 162.33 150.875ZM212.025 149.584C212.183 150.056 211.469 150.993 210.439 151.666C199.63 158.732 199.155 158.967 199.155 157.238C199.155 156.081 200.849 154.46 204.68 151.953C210.167 148.361 211.476 147.938 212.025 149.584ZM249.312 158.539C249.605 158.832 251.975 159.538 254.579 160.107C257.183 160.677 258.392 161.183 257.267 161.231C256.141 161.28 253.873 161.694 252.225 162.152C249.006 163.046 247.534 165.612 247.354 170.64C247.282 172.679 247.053 172.311 246.19 168.769C244.824 163.164 243.934 162.327 238.434 161.482L233.94 160.79L238.326 160.143C243.742 159.344 245.411 157.753 246.218 152.622L246.847 148.624L247.813 153.316C248.345 155.896 249.02 158.247 249.312 158.539ZM175.356 153.063C170.262 158.156 173.497 166.609 180.921 167.605C184.068 168.026 184.635 167.809 187.264 165.18C190.504 161.94 191.004 158.786 188.916 154.746C187.338 151.697 185.38 150.67 181.139 150.67C178.482 150.67 177.23 151.188 175.356 153.063ZM185.241 153.944C188.404 157.108 186.26 163.766 182.077 163.766C179.42 163.766 176.237 160.612 176.237 157.977C176.237 155.042 178.803 152.307 181.557 152.307C182.683 152.307 184.34 153.044 185.241 153.944ZM191.926 158.622C191.822 161.228 191.138 162.813 189.128 165.103C186.999 167.529 186.833 167.939 188.302 167.154C190.931 165.747 192.755 161.74 192.382 158.192L192.063 155.172L191.926 158.622ZM146.968 167.15C148.189 169.913 148.989 172.493 148.747 172.884C148.506 173.275 146.121 175.081 143.447 176.896C140.774 178.711 138.587 180.372 138.587 180.587C138.587 181.001 144.216 177.501 147.496 175.048C149.789 173.333 150.883 173.189 150.816 174.611C150.79 175.174 148.212 177.273 145.087 179.276C141.963 181.279 139.406 183.252 139.406 183.661C139.406 184.758 141.315 183.841 146.825 180.1C149.538 178.257 152.199 176.897 152.737 177.077C153.276 177.256 151.049 179.177 147.789 181.345C142.253 185.026 140.678 186.683 142.716 186.683C143.187 186.683 146.283 184.854 149.596 182.618C154.512 179.301 155.79 178.758 156.542 179.665C157.271 180.542 156.643 181.367 153.551 183.588C144.068 190.401 144.615 190.154 142.011 188.807C138.656 187.072 134.586 182.169 132.231 177.025C130.522 173.292 130.383 172.439 131.329 171.497C132.693 170.139 143.74 162.204 144.328 162.161C144.559 162.143 145.747 164.389 146.968 167.15ZM159.648 165.023C157.968 166.165 156.594 167.275 156.594 167.49C156.594 167.705 158.067 166.906 159.868 165.715C162.727 163.823 163.693 162.947 162.922 162.947C162.802 162.947 161.329 163.881 159.648 165.023ZM100.937 165.042C100.937 165.743 100.569 166.09 100.119 165.812C99.6685 165.534 99.3002 164.96 99.3002 164.536C99.3002 164.112 99.6685 163.766 100.119 163.766C100.569 163.766 100.937 164.341 100.937 165.042ZM219.527 166.522C220.233 167.373 220.159 167.887 219.217 168.669C217.484 170.108 215.028 168.214 216.433 166.522C216.944 165.906 217.64 165.403 217.98 165.403C218.319 165.403 219.016 165.906 219.527 166.522ZM230.665 183.113C231.52 184.419 232.98 185.083 235.766 185.438C237.913 185.711 240.774 186.249 242.125 186.634C244.433 187.292 244.359 187.34 240.897 187.423C236.356 187.531 231.346 188.866 230.503 190.192C230.156 190.738 229.474 193.947 228.988 197.324L228.105 203.462L227.182 197.393C225.98 189.495 224.783 188.284 217.603 187.707C212.188 187.273 211.556 185.909 216.752 185.873C218.103 185.863 220.578 185.475 222.254 185.01C225.568 184.09 226.277 182.604 227.506 173.997L228.091 169.905L228.78 175.595C229.158 178.725 230.007 182.108 230.665 183.113ZM102.121 175.294C101.858 175.721 101.294 175.854 100.868 175.591C100.441 175.327 100.308 174.763 100.571 174.337C100.835 173.91 101.399 173.777 101.825 174.04C102.252 174.304 102.385 174.868 102.121 175.294ZM127.129 174.842C127.129 175.533 128.049 177.914 129.174 180.134L131.219 184.17L128.166 186.246C126.486 187.386 125.416 188.32 125.789 188.32C126.162 188.32 127.565 187.539 128.907 186.583C130.528 185.429 131.621 185.119 132.162 185.66C132.704 186.202 131.995 187.083 130.053 188.284C125.774 190.928 126.473 192.134 130.812 189.591C135.199 187.02 135.733 187.996 131.562 190.964C127.762 193.668 129.196 194.611 133.087 191.968C136.237 189.827 136.95 189.574 136.95 190.599C136.95 190.953 135.82 191.909 134.438 192.725C133.057 193.541 132.115 194.398 132.345 194.628C132.575 194.858 133.903 194.236 135.295 193.244C136.82 192.158 138.383 191.655 139.225 191.978C140.453 192.45 140.376 192.712 138.582 194.137C137.459 195.03 135.695 196.11 134.66 196.537C127.823 199.358 116.109 183.326 120.785 177.547C121.974 176.078 125.564 173.588 126.493 173.588C126.842 173.588 127.129 174.152 127.129 174.842ZM177.67 176.25C180.926 177.081 182.423 176.938 189.333 175.135C190.309 174.881 190.611 175.861 190.805 179.931L191.048 185.046H180.851H170.654L170.376 180.064C170.223 177.325 170.274 174.91 170.488 174.698C170.701 174.485 171.622 174.548 172.534 174.838C173.445 175.126 175.756 175.762 177.67 176.25ZM200.604 180.289C200.098 181.807 198.336 182.058 198.336 180.613C198.336 179.901 198.92 179.317 199.632 179.317C200.345 179.317 200.783 179.754 200.604 180.289ZM118.277 194.634C117.068 195.631 116.419 196.459 116.833 196.476C117.248 196.492 118.263 195.894 119.089 195.146C119.915 194.398 120.859 194.055 121.187 194.384C121.515 194.712 120.875 195.666 119.762 196.505C117.011 198.581 118.227 199.476 121.317 197.651C124.422 195.817 125.584 196.717 122.948 198.913C120.097 201.287 118.668 200.987 115.355 197.321C111.818 193.406 111.621 191.046 114.63 188.646L116.865 186.865L118.67 189.844L120.475 192.822L118.277 194.634ZM108.584 187.975C109.452 188.308 109.7 189.217 109.422 191.044C109.167 192.717 109.621 194.786 110.7 196.862C112.296 199.932 112.307 200.162 110.953 201.773C109.534 203.459 109.534 203.46 111.378 201.898C113.821 199.83 114.849 200.963 112.584 203.229C110.833 204.981 110.801 204.982 109.035 203.411C107.045 201.64 103.413 194.419 103.401 192.208C103.396 191.42 104.129 190.039 105.03 189.139C106.853 187.315 106.859 187.313 108.584 187.975ZM174.176 197.528C173.972 198.091 170.704 207.817 166.915 219.144C159.049 242.655 158.813 240.239 169.076 241.225L174.6 241.756V224.095C174.6 207.274 175.162 202.235 177.035 202.235C177.585 202.235 177.874 209.142 177.874 222.287V242.34H180.33H182.785V222.287C182.785 209.142 183.074 202.235 183.624 202.235C185.498 202.235 186.059 207.274 186.059 224.095V241.756L191.714 241.231C201.789 240.295 201.648 242.512 193.192 217.99L185.783 196.505H180.166C176.417 196.505 174.425 196.846 174.176 197.528ZM213.973 199.203C212.922 200.254 211.857 199.442 212.634 198.183C212.936 197.696 213.557 197.529 214.015 197.812C214.574 198.158 214.56 198.615 213.973 199.203ZM118.33 203.651C120.312 204.22 120.13 206.919 118.065 207.573C116.465 208.082 111.577 206.654 111.577 205.678C111.577 204.38 114.489 202.239 115.618 202.708C116.322 203 117.542 203.424 118.33 203.651ZM113.928 204.485C112.911 205.783 112.939 205.812 114.237 204.795C115.026 204.177 115.67 203.532 115.67 203.362C115.67 202.689 114.998 203.122 113.928 204.485ZM151.478 205.167C150.698 205.947 149.134 204.684 149.716 203.744C150.062 203.185 150.519 203.199 151.107 203.786C151.589 204.268 151.756 204.89 151.478 205.167ZM115.565 205.304C114.548 206.602 114.576 206.631 115.874 205.613C117.238 204.543 117.671 203.872 116.997 203.872C116.828 203.872 116.183 204.516 115.565 205.304ZM131.882 209.662C131.721 210.146 131.239 210.542 130.812 210.542C130.384 210.542 129.902 210.146 129.741 209.662C129.58 209.179 130.061 208.782 130.812 208.782C131.562 208.782 132.043 209.179 131.882 209.662ZM214.616 210.72C215.318 211.566 215.27 212.068 214.415 212.777C213.553 213.492 213.051 213.43 212.289 212.511C211.299 211.32 211.729 209.601 213.017 209.601C213.386 209.601 214.105 210.104 214.616 210.72ZM146.363 219.423C146.085 219.873 145.511 220.241 145.087 220.241C144.663 220.241 144.317 219.873 144.317 219.423C144.317 218.972 144.891 218.604 145.593 218.604C146.294 218.604 146.641 218.972 146.363 219.423ZM65.7425 243.977C65.7425 245.587 66.2884 245.614 98.4817 245.614C130.675 245.614 131.221 245.587 131.221 243.977C131.221 242.367 130.675 242.34 98.4817 242.34C66.2884 242.34 65.7425 242.367 65.7425 243.977ZM229.439 243.977C229.439 245.586 229.984 245.614 261.359 245.614C292.734 245.614 293.28 245.586 293.28 243.977C293.28 242.368 292.734 242.34 261.359 242.34C229.984 242.34 229.439 242.368 229.439 243.977Z" fill="#F17A37"/>
<path d="M31.5154 299.436V266.796H42.2674C45.6914 266.796 48.2514 267.66 49.9474 269.388C51.6754 271.116 52.5394 273.42 52.5394 276.3V278.844C52.5394 281.724 51.6754 284.044 49.9474 285.804C48.2514 287.532 45.6914 288.396 42.2674 288.396H37.2754V299.436H31.5154ZM42.2674 272.316H37.2754V282.876H42.2674C43.6754 282.876 44.7474 282.524 45.4834 281.82C46.2514 281.116 46.6354 280.124 46.6354 278.844V276.3C46.6354 275.052 46.2514 274.076 45.4834 273.372C44.7474 272.668 43.6754 272.316 42.2674 272.316ZM77.8939 293.916V299.436H59.0779V266.796H64.8379V293.916H77.8939ZM100.782 299.436L98.7661 293.052H87.5821L85.5661 299.436H79.8541L90.7501 266.796H95.8381L106.782 299.436H100.782ZM90.7021 283.068L89.2141 287.772H97.0861L95.5981 283.068L93.1981 274.812L90.7021 283.068ZM112.234 299.436V266.796H117.514C120.042 270.092 122.442 273.58 124.714 277.26C126.986 280.908 129.05 284.668 130.906 288.54L130.474 278.796V266.796H135.994V299.436H130.714C128.666 295.404 126.538 291.356 124.33 287.292C122.154 283.196 119.834 279.34 117.37 275.724L117.754 286.956V299.436H112.234ZM163.912 293.916V299.436H145V266.796H163.432V272.316H150.76V280.14H161.992V285.66H150.76V293.916H163.912ZM166.846 272.316V266.796H190.846V272.316H181.726V299.436H175.966V272.316H166.846ZM210.235 299.436L208.219 293.052H197.035L195.019 299.436H189.307L200.203 266.796H205.291L216.235 299.436H210.235ZM200.155 283.068L198.667 287.772H206.539L205.051 283.068L202.651 274.812L200.155 283.068ZM227.447 287.436V299.436H221.687V266.796H232.583C235.879 266.796 238.407 267.644 240.167 269.34C241.959 271.004 242.855 273.244 242.855 276.06V278.124C242.855 279.98 242.455 281.612 241.655 283.02C240.855 284.428 239.703 285.5 238.199 286.236C240.823 290.716 243.063 295.116 244.919 299.436H238.343C236.743 295.436 234.839 291.436 232.631 287.436H227.447ZM232.583 272.076H227.447V282.156H232.583C233.991 282.156 235.063 281.804 235.799 281.1C236.567 280.364 236.951 279.372 236.951 278.124V276.06C236.951 274.844 236.567 273.884 235.799 273.18C235.063 272.444 233.991 272.076 232.583 272.076ZM256.697 299.436H250.937V266.796H256.697V299.436ZM264.935 266.796H270.839V287.724C270.839 289.836 271.303 291.5 272.231 292.716C273.159 293.9 274.647 294.492 276.695 294.492C278.743 294.492 280.231 293.9 281.159 292.716C282.087 291.5 282.551 289.836 282.551 287.724V266.796H288.455V287.724C288.455 291.404 287.479 294.364 285.527 296.604C283.575 298.812 280.631 299.916 276.695 299.916C272.727 299.916 269.767 298.812 267.815 296.604C265.895 294.364 264.935 291.404 264.935 287.724V266.796ZM303.022 266.796L312.142 289.116L321.214 266.796H327.502V299.436H321.982V286.956L322.702 275.532L314.59 295.596H309.454L301.534 275.484L302.254 286.956V299.436H296.734V266.796H303.022Z" fill="#F17A37"/>
</svg>
